<svg version="1.2" xmlns="http://www.w3.org/2000/svg" viewBox="0 0 44 47" width="44" height="47">
	<title>dotsimage-svg</title>
	<style>
		.s0 { fill: #ffffff } 
	</style>
	<g id="Layer">
		<path id="Layer" class="s0" d="m17 10.5c0-4.1-3.4-7.5-7.5-7.5-4.1 0-7.5 3.4-7.5 7.5 0 4.1 3.4 7.5 7.5 7.5 4.1 0 7.5-3.4 7.5-7.5z"/>
	</g>
	<g id="Layer">
		<path id="Layer" class="s0" d="m32 26.8c0-2.8-2.2-5.1-5-5.1-2.8 0-5 2.3-5 5 0 2.8 2.2 5 5 5 2.8 0 5-2.2 5-5z"/>
	</g>
	<g id="Layer">
		<path id="Layer" class="s0" d="m42 39.3c0-2.1-1.7-3.8-3.8-3.8-2 0-3.7 1.7-3.7 3.8 0 2 1.7 3.7 3.8 3.7 2 0 3.7-1.7 3.7-3.7z"/>
	</g>
</svg>