<svg width="275" height="56" viewBox="0 0 275 56" fill="none" xmlns="http://www.w3.org/2000/svg">
<path d="M69.8047 17.6514C69.8047 17.4229 69.7695 17.2178 69.6992 17.0361C69.6348 16.8486 69.5117 16.6787 69.3301 16.5264C69.1484 16.3682 68.8936 16.2129 68.5654 16.0605C68.2373 15.9082 67.8125 15.75 67.291 15.5859C66.7109 15.3984 66.1602 15.1875 65.6387 14.9531C65.123 14.7188 64.666 14.4463 64.2676 14.1357C63.875 13.8193 63.5645 13.4531 63.3359 13.0371C63.1133 12.6211 63.002 12.1377 63.002 11.5869C63.002 11.0537 63.1191 10.5703 63.3535 10.1367C63.5879 9.69727 63.916 9.32227 64.3379 9.01172C64.7598 8.69531 65.2578 8.45215 65.832 8.28223C66.4121 8.1123 67.0479 8.02734 67.7393 8.02734C68.6826 8.02734 69.5059 8.19727 70.209 8.53711C70.9121 8.87695 71.457 9.34277 71.8438 9.93457C72.2363 10.5264 72.4326 11.2031 72.4326 11.9648H69.8135C69.8135 11.5898 69.7344 11.2617 69.5762 10.9805C69.4238 10.6934 69.1895 10.4678 68.873 10.3037C68.5625 10.1396 68.1699 10.0576 67.6953 10.0576C67.2383 10.0576 66.8574 10.1279 66.5527 10.2686C66.248 10.4033 66.0195 10.5879 65.8672 10.8223C65.7148 11.0508 65.6387 11.3086 65.6387 11.5957C65.6387 11.8125 65.6914 12.0088 65.7969 12.1846C65.9082 12.3604 66.0723 12.5244 66.2891 12.6768C66.5059 12.8291 66.7725 12.9727 67.0889 13.1074C67.4053 13.2422 67.7715 13.374 68.1875 13.5029C68.8848 13.7139 69.4971 13.9512 70.0244 14.2148C70.5576 14.4785 71.0029 14.7744 71.3604 15.1025C71.7178 15.4307 71.9873 15.8027 72.1689 16.2188C72.3506 16.6348 72.4414 17.1064 72.4414 17.6338C72.4414 18.1904 72.333 18.6885 72.1162 19.1279C71.8994 19.5674 71.5859 19.9395 71.1758 20.2441C70.7656 20.5488 70.2764 20.7803 69.708 20.9385C69.1396 21.0967 68.5039 21.1758 67.8008 21.1758C67.168 21.1758 66.5439 21.0938 65.9287 20.9297C65.3135 20.7598 64.7539 20.5049 64.25 20.165C63.752 19.8252 63.3535 19.3916 63.0547 18.8643C62.7559 18.3369 62.6064 17.7129 62.6064 16.9922H65.252C65.252 17.3906 65.3135 17.7275 65.4365 18.0029C65.5596 18.2783 65.7324 18.501 65.9551 18.6709C66.1836 18.8408 66.4531 18.9639 66.7637 19.04C67.0801 19.1162 67.4258 19.1543 67.8008 19.1543C68.2578 19.1543 68.6328 19.0898 68.9258 18.9609C69.2246 18.832 69.4443 18.6533 69.585 18.4248C69.7314 18.1963 69.8047 17.9385 69.8047 17.6514ZM79.2744 11.4902V13.2832H73.7373V11.4902H79.2744ZM75.1084 9.14355H77.6396V18.1348C77.6396 18.4102 77.6748 18.6211 77.7451 18.7676C77.8212 18.9141 77.9326 19.0166 78.0791 19.0752C78.2255 19.1279 78.4101 19.1543 78.6328 19.1543C78.791 19.1543 78.9316 19.1484 79.0546 19.1367C79.1836 19.1191 79.292 19.1016 79.3798 19.084L79.3886 20.9473C79.1718 21.0176 78.9375 21.0732 78.6855 21.1143C78.4336 21.1553 78.1552 21.1758 77.8505 21.1758C77.2939 21.1758 76.8076 21.085 76.3916 20.9033C75.9814 20.7158 75.665 20.417 75.4423 20.0068C75.2197 19.5967 75.1084 19.0576 75.1084 18.3896V9.14355ZM86.8808 18.7236V11.4902H89.412V21H87.0302L86.8808 18.7236ZM87.162 16.7725L87.9091 16.7549C87.9091 17.3877 87.8359 17.9766 87.6894 18.5215C87.5429 19.0605 87.3232 19.5293 87.0302 19.9277C86.7372 20.3203 86.3681 20.6279 85.9228 20.8506C85.4775 21.0674 84.953 21.1758 84.3495 21.1758C83.8866 21.1758 83.4589 21.1113 83.0663 20.9824C82.6796 20.8477 82.3456 20.6396 82.0644 20.3584C81.789 20.0713 81.5722 19.7051 81.414 19.2598C81.2616 18.8086 81.1855 18.2666 81.1855 17.6338V11.4902H83.7167V17.6514C83.7167 17.9326 83.7489 18.1699 83.8134 18.3633C83.8837 18.5566 83.9804 18.7148 84.1034 18.8379C84.2265 18.9609 84.37 19.0488 84.5341 19.1016C84.704 19.1543 84.8915 19.1807 85.0966 19.1807C85.6181 19.1807 86.0282 19.0752 86.3271 18.8643C86.6318 18.6533 86.8456 18.3662 86.9687 18.0029C87.0976 17.6338 87.162 17.2236 87.162 16.7725ZM97.5018 18.9258V7.5H100.051V21H97.7567L97.5018 18.9258ZM91.4901 16.3594V16.1748C91.4901 15.4482 91.5721 14.7891 91.7362 14.1973C91.9003 13.5996 92.1405 13.0869 92.4569 12.6592C92.7733 12.2314 93.163 11.9004 93.6259 11.666C94.0888 11.4316 94.6161 11.3145 95.2079 11.3145C95.7645 11.3145 96.2509 11.4316 96.6669 11.666C97.0888 11.9004 97.4462 12.2344 97.7391 12.668C98.038 13.0957 98.2782 13.6025 98.4598 14.1885C98.6415 14.7686 98.7733 15.4043 98.8554 16.0957V16.5C98.7733 17.1621 98.6415 17.7773 98.4598 18.3457C98.2782 18.9141 98.038 19.4121 97.7391 19.8398C97.4462 20.2617 97.0888 20.5898 96.6669 20.8242C96.245 21.0586 95.7528 21.1758 95.1903 21.1758C94.5985 21.1758 94.0712 21.0557 93.6083 20.8154C93.1513 20.5752 92.7645 20.2383 92.4481 19.8047C92.1376 19.3711 91.9003 18.8613 91.7362 18.2754C91.5721 17.6895 91.4901 17.0508 91.4901 16.3594ZM94.0214 16.1748V16.3594C94.0214 16.752 94.0507 17.1182 94.1093 17.458C94.1737 17.7979 94.2763 18.0996 94.4169 18.3633C94.5634 18.6211 94.7509 18.8232 94.9794 18.9697C95.2138 19.1104 95.4979 19.1807 95.8319 19.1807C96.2655 19.1807 96.6229 19.084 96.9042 18.8906C97.1854 18.6914 97.3993 18.4189 97.5458 18.0732C97.6981 17.7275 97.786 17.3291 97.8095 16.8779V15.7266C97.7919 15.3574 97.7391 15.0264 97.6513 14.7334C97.5692 14.4346 97.4462 14.1797 97.2821 13.9688C97.1239 13.7578 96.9247 13.5938 96.6845 13.4766C96.4501 13.3594 96.1718 13.3008 95.8495 13.3008C95.5214 13.3008 95.2401 13.377 95.0057 13.5293C94.7714 13.6758 94.5809 13.8779 94.4345 14.1357C94.2938 14.3936 94.1884 14.6982 94.118 15.0498C94.0536 15.3955 94.0214 15.7705 94.0214 16.1748ZM105.24 11.4902V21H102.7V11.4902H105.24ZM102.542 9.01172C102.542 8.64258 102.671 8.33789 102.929 8.09766C103.186 7.85742 103.532 7.7373 103.966 7.7373C104.393 7.7373 104.736 7.85742 104.994 8.09766C105.258 8.33789 105.389 8.64258 105.389 9.01172C105.389 9.38086 105.258 9.68555 104.994 9.92578C104.736 10.166 104.393 10.2861 103.966 10.2861C103.532 10.2861 103.186 10.166 102.929 9.92578C102.671 9.68555 102.542 9.38086 102.542 9.01172ZM107.468 16.3418V16.1572C107.468 15.46 107.567 14.8184 107.766 14.2324C107.966 13.6406 108.256 13.1279 108.637 12.6943C109.017 12.2607 109.486 11.9238 110.043 11.6836C110.599 11.4375 111.238 11.3145 111.959 11.3145C112.679 11.3145 113.321 11.4375 113.884 11.6836C114.446 11.9238 114.918 12.2607 115.299 12.6943C115.685 13.1279 115.978 13.6406 116.178 14.2324C116.377 14.8184 116.476 15.46 116.476 16.1572V16.3418C116.476 17.0332 116.377 17.6748 116.178 18.2666C115.978 18.8525 115.685 19.3652 115.299 19.8047C114.918 20.2383 114.449 20.5752 113.892 20.8154C113.336 21.0557 112.697 21.1758 111.976 21.1758C111.256 21.1758 110.614 21.0557 110.052 20.8154C109.495 20.5752 109.023 20.2383 108.637 19.8047C108.256 19.3652 107.966 18.8525 107.766 18.2666C107.567 17.6748 107.468 17.0332 107.468 16.3418ZM109.999 16.1572V16.3418C109.999 16.7402 110.034 17.1123 110.104 17.458C110.175 17.8037 110.286 18.1084 110.438 18.3721C110.596 18.6299 110.802 18.832 111.054 18.9785C111.305 19.125 111.613 19.1982 111.976 19.1982C112.328 19.1982 112.63 19.125 112.882 18.9785C113.134 18.832 113.336 18.6299 113.488 18.3721C113.64 18.1084 113.752 17.8037 113.822 17.458C113.898 17.1123 113.936 16.7402 113.936 16.3418V16.1572C113.936 15.7705 113.898 15.4072 113.822 15.0674C113.752 14.7217 113.638 14.417 113.479 14.1533C113.327 13.8838 113.125 13.6729 112.873 13.5205C112.621 13.3682 112.316 13.292 111.959 13.292C111.601 13.292 111.297 13.3682 111.045 13.5205C110.799 13.6729 110.596 13.8838 110.438 14.1533C110.286 14.417 110.175 14.7217 110.104 15.0674C110.034 15.4072 109.999 15.7705 109.999 16.1572ZM127.681 21H124.895L124.913 18.9434H127.681C128.373 18.9434 128.956 18.7881 129.43 18.4775C129.905 18.1611 130.262 17.7012 130.503 17.0977C130.749 16.4941 130.872 15.7646 130.872 14.9092V14.2852C130.872 13.6289 130.801 13.0518 130.661 12.5537C130.526 12.0557 130.324 11.6367 130.054 11.2969C129.785 10.957 129.454 10.7021 129.061 10.5322C128.669 10.3564 128.217 10.2686 127.708 10.2686H124.842V8.20312H127.708C128.563 8.20312 129.345 8.34961 130.054 8.64258C130.769 8.92969 131.387 9.34277 131.909 9.88184C132.43 10.4209 132.832 11.0654 133.113 11.8154C133.4 12.5596 133.544 13.3887 133.544 14.3027V14.9092C133.544 15.8174 133.4 16.6465 133.113 17.3965C132.832 18.1465 132.43 18.791 131.909 19.3301C131.393 19.8633 130.775 20.2764 130.054 20.5693C129.34 20.8564 128.549 21 127.681 21ZM126.389 8.20312V21H123.753V8.20312H126.389ZM140.218 21.1758C139.48 21.1758 138.818 21.0586 138.232 20.8242C137.646 20.584 137.148 20.2529 136.738 19.8311C136.334 19.4092 136.023 18.9199 135.806 18.3633C135.59 17.8008 135.481 17.2031 135.481 16.5703V16.2188C135.481 15.498 135.584 14.8389 135.789 14.2412C135.994 13.6436 136.287 13.125 136.668 12.6855C137.054 12.2461 137.523 11.9092 138.074 11.6748C138.625 11.4346 139.246 11.3145 139.937 11.3145C140.611 11.3145 141.209 11.4258 141.73 11.6484C142.252 11.8711 142.688 12.1875 143.04 12.5977C143.397 13.0078 143.667 13.5 143.848 14.0742C144.03 14.6426 144.121 15.2754 144.121 15.9727V17.0273H136.562V15.3398H141.633V15.1465C141.633 14.7949 141.569 14.4814 141.44 14.2061C141.317 13.9248 141.13 13.7021 140.878 13.5381C140.626 13.374 140.303 13.292 139.911 13.292C139.577 13.292 139.29 13.3652 139.049 13.5117C138.809 13.6582 138.613 13.8633 138.461 14.127C138.314 14.3906 138.203 14.7012 138.127 15.0586C138.056 15.4102 138.021 15.7969 138.021 16.2188V16.5703C138.021 16.9512 138.074 17.3027 138.179 17.625C138.291 17.9473 138.446 18.2256 138.645 18.46C138.85 18.6943 139.096 18.876 139.383 19.0049C139.676 19.1338 140.007 19.1982 140.377 19.1982C140.834 19.1982 141.258 19.1104 141.651 18.9346C142.049 18.7529 142.392 18.4805 142.679 18.1172L143.91 19.4531C143.711 19.7402 143.438 20.0156 143.092 20.2793C142.753 20.543 142.342 20.7598 141.862 20.9297C141.382 21.0938 140.834 21.1758 140.218 21.1758ZM149.214 19.1543L151.323 11.4902H153.968L150.76 21H149.161L149.214 19.1543ZM147.763 11.4902L149.881 19.1631L149.925 21H148.317L145.109 11.4902H147.763ZM159.896 21.1758C159.158 21.1758 158.496 21.0586 157.91 20.8242C157.324 20.584 156.826 20.2529 156.416 19.8311C156.011 19.4092 155.701 18.9199 155.484 18.3633C155.267 17.8008 155.159 17.2031 155.159 16.5703V16.2188C155.159 15.498 155.261 14.8389 155.466 14.2412C155.671 13.6436 155.964 13.125 156.345 12.6855C156.732 12.2461 157.201 11.9092 157.752 11.6748C158.302 11.4346 158.923 11.3145 159.615 11.3145C160.289 11.3145 160.886 11.4258 161.408 11.6484C161.929 11.8711 162.366 12.1875 162.717 12.5977C163.075 13.0078 163.344 13.5 163.526 14.0742C163.708 14.6426 163.798 15.2754 163.798 15.9727V17.0273H156.24V15.3398H161.311V15.1465C161.311 14.7949 161.247 14.4814 161.118 14.2061C160.995 13.9248 160.807 13.7021 160.555 13.5381C160.303 13.374 159.981 13.292 159.588 13.292C159.254 13.292 158.967 13.3652 158.727 13.5117C158.487 13.6582 158.291 13.8633 158.138 14.127C157.992 14.3906 157.88 14.7012 157.804 15.0586C157.734 15.4102 157.699 15.7969 157.699 16.2188V16.5703C157.699 16.9512 157.752 17.3027 157.857 17.625C157.968 17.9473 158.124 18.2256 158.323 18.46C158.528 18.6943 158.774 18.876 159.061 19.0049C159.354 19.1338 159.685 19.1982 160.054 19.1982C160.511 19.1982 160.936 19.1104 161.329 18.9346C161.727 18.7529 162.07 18.4805 162.357 18.1172L163.588 19.4531C163.388 19.7402 163.116 20.0156 162.77 20.2793C162.43 20.543 162.02 20.7598 161.54 20.9297C161.059 21.0938 160.511 21.1758 159.896 21.1758ZM168.452 7.5V21H165.912V7.5H168.452ZM170.679 16.3418V16.1572C170.679 15.46 170.779 14.8184 170.978 14.2324C171.177 13.6406 171.467 13.1279 171.848 12.6943C172.229 12.2607 172.698 11.9238 173.254 11.6836C173.811 11.4375 174.45 11.3145 175.17 11.3145C175.891 11.3145 176.533 11.4375 177.095 11.6836C177.658 11.9238 178.129 12.2607 178.51 12.6943C178.897 13.1279 179.19 13.6406 179.389 14.2324C179.588 14.8184 179.688 15.46 179.688 16.1572V16.3418C179.688 17.0332 179.588 17.6748 179.389 18.2666C179.19 18.8525 178.897 19.3652 178.51 19.8047C178.129 20.2383 177.661 20.5752 177.104 20.8154C176.547 21.0557 175.909 21.1758 175.188 21.1758C174.467 21.1758 173.826 21.0557 173.263 20.8154C172.707 20.5752 172.235 20.2383 171.848 19.8047C171.467 19.3652 171.177 18.8525 170.978 18.2666C170.779 17.6748 170.679 17.0332 170.679 16.3418ZM173.21 16.1572V16.3418C173.21 16.7402 173.246 17.1123 173.316 17.458C173.386 17.8037 173.498 18.1084 173.65 18.3721C173.808 18.6299 174.013 18.832 174.265 18.9785C174.517 19.125 174.825 19.1982 175.188 19.1982C175.54 19.1982 175.841 19.125 176.093 18.9785C176.345 18.832 176.547 18.6299 176.7 18.3721C176.852 18.1084 176.963 17.8037 177.034 17.458C177.11 17.1123 177.148 16.7402 177.148 16.3418V16.1572C177.148 15.7705 177.11 15.4072 177.034 15.0674C176.963 14.7217 176.849 14.417 176.691 14.1533C176.539 13.8838 176.336 13.6729 176.084 13.5205C175.833 13.3682 175.528 13.292 175.17 13.292C174.813 13.292 174.508 13.3682 174.256 13.5205C174.01 13.6729 173.808 13.8838 173.65 14.1533C173.498 14.417 173.386 14.7217 173.316 15.0674C173.246 15.4072 173.21 15.7705 173.21 16.1572ZM184.315 13.3184V24.6562H181.784V11.4902H184.13L184.315 13.3184ZM190.335 16.1396V16.3242C190.335 17.0156 190.253 17.6572 190.089 18.249C189.931 18.8408 189.697 19.3564 189.386 19.7959C189.076 20.2295 188.689 20.5693 188.226 20.8154C187.769 21.0557 187.242 21.1758 186.644 21.1758C186.064 21.1758 185.56 21.0586 185.132 20.8242C184.705 20.5898 184.344 20.2617 184.051 19.8398C183.764 19.4121 183.533 18.917 183.357 18.3545C183.181 17.792 183.046 17.1885 182.953 16.5439V16.0605C183.046 15.3691 183.181 14.7363 183.357 14.1621C183.533 13.582 183.764 13.0811 184.051 12.6592C184.344 12.2314 184.702 11.9004 185.124 11.666C185.551 11.4316 186.052 11.3145 186.626 11.3145C187.23 11.3145 187.76 11.4287 188.217 11.6572C188.68 11.8857 189.067 12.2139 189.377 12.6416C189.694 13.0693 189.931 13.5791 190.089 14.1709C190.253 14.7627 190.335 15.4189 190.335 16.1396ZM187.795 16.3242V16.1396C187.795 15.7354 187.76 15.3633 187.69 15.0234C187.625 14.6777 187.52 14.376 187.374 14.1182C187.233 13.8604 187.045 13.6611 186.811 13.5205C186.582 13.374 186.304 13.3008 185.976 13.3008C185.63 13.3008 185.334 13.3564 185.088 13.4678C184.848 13.5791 184.652 13.7402 184.499 13.9512C184.347 14.1621 184.233 14.4141 184.157 14.707C184.081 15 184.034 15.3311 184.016 15.7002V16.9219C184.045 17.3555 184.127 17.7451 184.262 18.0908C184.397 18.4307 184.605 18.7002 184.886 18.8994C185.167 19.0986 185.537 19.1982 185.994 19.1982C186.328 19.1982 186.609 19.125 186.837 18.9785C187.066 18.8262 187.25 18.6182 187.391 18.3545C187.538 18.0908 187.64 17.7861 187.699 17.4404C187.763 17.0947 187.795 16.7227 187.795 16.3242ZM194.98 13.459V21H192.44V11.4902H194.822L194.98 13.459ZM194.628 15.9111H193.925C193.925 15.249 194.004 14.6396 194.163 14.083C194.327 13.5205 194.564 13.0342 194.874 12.624C195.191 12.208 195.581 11.8857 196.043 11.6572C196.506 11.4287 197.042 11.3145 197.652 11.3145C198.074 11.3145 198.46 11.3789 198.812 11.5078C199.164 11.6309 199.465 11.8271 199.717 12.0967C199.975 12.3604 200.174 12.7061 200.315 13.1338C200.456 13.5557 200.526 14.0625 200.526 14.6543V21H197.995V14.9355C197.995 14.502 197.936 14.168 197.819 13.9336C197.702 13.6992 197.535 13.5352 197.318 13.4414C197.107 13.3477 196.852 13.3008 196.553 13.3008C196.225 13.3008 195.938 13.3682 195.692 13.5029C195.452 13.6377 195.252 13.8252 195.094 14.0654C194.936 14.2998 194.819 14.5752 194.743 14.8916C194.666 15.208 194.628 15.5479 194.628 15.9111ZM200.289 15.6211L199.383 15.7354C199.383 15.1143 199.459 14.5371 199.612 14.0039C199.77 13.4707 200.001 13.002 200.306 12.5977C200.617 12.1934 201 11.8799 201.457 11.6572C201.914 11.4287 202.442 11.3145 203.039 11.3145C203.497 11.3145 203.913 11.3818 204.288 11.5166C204.663 11.6455 204.982 11.8535 205.246 12.1406C205.515 12.4219 205.72 12.791 205.861 13.248C206.007 13.7051 206.081 14.2646 206.081 14.9268V21H203.54V14.9268C203.54 14.4873 203.482 14.1533 203.365 13.9248C203.253 13.6904 203.089 13.5293 202.872 13.4414C202.662 13.3477 202.41 13.3008 202.117 13.3008C201.812 13.3008 201.545 13.3623 201.317 13.4854C201.088 13.6025 200.898 13.7666 200.746 13.9775C200.593 14.1885 200.479 14.4346 200.403 14.7158C200.327 14.9912 200.289 15.293 200.289 15.6211ZM212.957 21.1758C212.219 21.1758 211.557 21.0586 210.971 20.8242C210.385 20.584 209.887 20.2529 209.477 19.8311C209.073 19.4092 208.762 18.9199 208.545 18.3633C208.329 17.8008 208.22 17.2031 208.22 16.5703V16.2188C208.22 15.498 208.323 14.8389 208.528 14.2412C208.733 13.6436 209.026 13.125 209.407 12.6855C209.793 12.2461 210.262 11.9092 210.813 11.6748C211.364 11.4346 211.985 11.3145 212.676 11.3145C213.35 11.3145 213.948 11.4258 214.469 11.6484C214.991 11.8711 215.427 12.1875 215.779 12.5977C216.136 13.0078 216.406 13.5 216.587 14.0742C216.769 14.6426 216.86 15.2754 216.86 15.9727V17.0273H209.301V15.3398H214.372V15.1465C214.372 14.7949 214.308 14.4814 214.179 14.2061C214.056 13.9248 213.869 13.7021 213.617 13.5381C213.365 13.374 213.042 13.292 212.65 13.292C212.316 13.292 212.029 13.3652 211.788 13.5117C211.548 13.6582 211.352 13.8633 211.2 14.127C211.053 14.3906 210.942 14.7012 210.866 15.0586C210.795 15.4102 210.76 15.7969 210.76 16.2188V16.5703C210.76 16.9512 210.813 17.3027 210.918 17.625C211.03 17.9473 211.185 18.2256 211.384 18.46C211.589 18.6943 211.835 18.876 212.122 19.0049C212.415 19.1338 212.746 19.1982 213.116 19.1982C213.573 19.1982 213.997 19.1104 214.39 18.9346C214.788 18.7529 215.131 18.4805 215.418 18.1172L216.649 19.4531C216.45 19.7402 216.177 20.0156 215.831 20.2793C215.492 20.543 215.081 20.7598 214.601 20.9297C214.121 21.0938 213.573 21.1758 212.957 21.1758ZM221.32 13.5205V21H218.788V11.4902H221.161L221.32 13.5205ZM220.951 15.9111H220.265C220.265 15.208 220.356 14.5752 220.537 14.0127C220.719 13.4443 220.974 12.9609 221.302 12.5625C221.63 12.1582 222.02 11.8506 222.471 11.6396C222.928 11.4229 223.438 11.3145 224 11.3145C224.446 11.3145 224.853 11.3789 225.222 11.5078C225.591 11.6367 225.908 11.8418 226.171 12.123C226.441 12.4043 226.646 12.7764 226.786 13.2393C226.933 13.7021 227.006 14.2676 227.006 14.9355V21H224.457V14.9268C224.457 14.5049 224.399 14.1768 224.282 13.9424C224.164 13.708 223.992 13.5439 223.763 13.4502C223.54 13.3506 223.265 13.3008 222.937 13.3008C222.597 13.3008 222.301 13.3682 222.049 13.5029C221.803 13.6377 221.598 13.8252 221.434 14.0654C221.276 14.2998 221.156 14.5752 221.074 14.8916C220.992 15.208 220.951 15.5479 220.951 15.9111ZM234.129 11.4902V13.2832H228.592V11.4902H234.129ZM229.963 9.14355H232.494V18.1348C232.494 18.4102 232.53 18.6211 232.6 18.7676C232.676 18.9141 232.787 19.0166 232.934 19.0752C233.08 19.1279 233.265 19.1543 233.488 19.1543C233.646 19.1543 233.786 19.1484 233.91 19.1367C234.038 19.1191 234.147 19.1016 234.235 19.084L234.243 20.9473C234.027 21.0176 233.792 21.0732 233.54 21.1143C233.288 21.1553 233.01 21.1758 232.705 21.1758C232.149 21.1758 231.662 21.085 231.246 20.9033C230.836 20.7158 230.52 20.417 230.297 20.0068C230.075 19.5967 229.963 19.0576 229.963 18.3896V9.14355ZM249.825 13.415V15.4717H243.146V13.415H249.825ZM243.928 8.20312V21H241.291V8.20312H243.928ZM251.706 8.20312V21H249.078V8.20312H251.706ZM260.007 18.7236V11.4902H262.538V21H260.156L260.007 18.7236ZM260.288 16.7725L261.035 16.7549C261.035 17.3877 260.962 17.9766 260.816 18.5215C260.669 19.0605 260.449 19.5293 260.156 19.9277C259.863 20.3203 259.494 20.6279 259.049 20.8506C258.604 21.0674 258.079 21.1758 257.476 21.1758C257.013 21.1758 256.585 21.1113 256.193 20.9824C255.806 20.8477 255.472 20.6396 255.191 20.3584C254.915 20.0713 254.698 19.7051 254.54 19.2598C254.388 18.8086 254.312 18.2666 254.312 17.6338V11.4902H256.843V17.6514C256.843 17.9326 256.875 18.1699 256.94 18.3633C257.01 18.5566 257.107 18.7148 257.23 18.8379C257.353 18.9609 257.496 19.0488 257.66 19.1016C257.83 19.1543 258.018 19.1807 258.223 19.1807C258.744 19.1807 259.154 19.0752 259.453 18.8643C259.758 18.6533 259.972 18.3662 260.095 18.0029C260.224 17.6338 260.288 17.2236 260.288 16.7725ZM265.012 7.5H267.543V18.8203L267.288 21H265.012V7.5ZM273.564 16.1484V16.333C273.564 17.042 273.487 17.6924 273.335 18.2842C273.189 18.876 272.96 19.3887 272.65 19.8223C272.339 20.25 271.952 20.584 271.489 20.8242C271.032 21.0586 270.493 21.1758 269.872 21.1758C269.292 21.1758 268.788 21.0586 268.361 20.8242C267.939 20.5898 267.584 20.2588 267.297 19.8311C267.01 19.4033 266.778 18.9023 266.603 18.3281C266.427 17.7539 266.295 17.127 266.207 16.4473V16.043C266.295 15.3633 266.427 14.7363 266.603 14.1621C266.778 13.5879 267.01 13.0869 267.297 12.6592C267.584 12.2314 267.939 11.9004 268.361 11.666C268.782 11.4316 269.28 11.3145 269.855 11.3145C270.482 11.3145 271.027 11.4346 271.489 11.6748C271.958 11.9092 272.345 12.2432 272.65 12.6768C272.96 13.1045 273.189 13.6143 273.335 14.2061C273.487 14.792 273.564 15.4395 273.564 16.1484ZM271.032 16.333V16.1484C271.032 15.7617 271.003 15.3984 270.944 15.0586C270.892 14.7129 270.798 14.4111 270.663 14.1533C270.528 13.8896 270.344 13.6816 270.11 13.5293C269.881 13.377 269.585 13.3008 269.222 13.3008C268.876 13.3008 268.583 13.3594 268.343 13.4766C268.103 13.5938 267.903 13.7578 267.745 13.9688C267.593 14.1797 267.479 14.4316 267.402 14.7246C267.326 15.0117 267.279 15.3281 267.262 15.6738V16.8252C267.279 17.2881 267.356 17.6982 267.49 18.0557C267.631 18.4072 267.842 18.6855 268.123 18.8906C268.41 19.0898 268.782 19.1895 269.239 19.1895C269.597 19.1895 269.893 19.1191 270.127 18.9785C270.361 18.8379 270.543 18.6387 270.672 18.3809C270.807 18.123 270.901 17.8213 270.953 17.4756C271.006 17.124 271.032 16.7432 271.032 16.333Z" fill="black"/>
<path d="M63.261 44V34.419H64.769V44H63.261ZM69.6127 44V35.693H66.8047V34.419H73.9417V35.693H71.1207V44H69.6127ZM79.5753 34.51H77.0793V35.381H79.5753V34.51ZM77.0793 37.162H79.5753V36.213H77.0793V37.162ZM80.7063 38.046H77.0793V45.027H75.8833V33.613H80.7063V38.046ZM80.3943 40.997H81.9413V39.762H80.3943V40.997ZM84.6323 41.998H83.0203V44.793H81.9413V41.998H80.3683C80.2643 42.869 79.8483 44.195 78.6653 44.988C78.4963 44.767 78.1323 44.442 77.8853 44.273C78.8473 43.688 79.2113 42.713 79.3153 41.998H77.8333V40.997H79.3543V39.762H78.0673V38.8H84.3723V39.762H83.0203V40.997H84.6323V41.998ZM82.8643 37.188H85.4383V36.213H82.8643V37.188ZM85.4383 34.51H82.8643V35.381H85.4383V34.51ZM86.6343 33.613V43.545C86.6343 44.208 86.5043 44.559 86.0753 44.767C85.6593 44.962 85.0093 45.001 84.0343 44.988C83.9953 44.663 83.8263 44.117 83.6443 43.792C84.3073 43.805 84.9703 43.805 85.1783 43.805C85.3733 43.792 85.4383 43.727 85.4383 43.532V38.072H81.7073V33.613H86.6343ZM95.5393 40.438V38.722H93.5633V40.347V40.438H95.5393ZM98.1393 38.722H96.7873V40.438H99.7253V41.556H96.7873V43.337C96.7873 43.779 96.8523 43.844 97.2683 43.844H98.5293C98.9063 43.844 98.9713 43.584 99.0233 42.297C99.2963 42.492 99.7773 42.7 100.102 42.765C99.9983 44.442 99.6603 44.923 98.6463 44.923H97.0603C95.8383 44.923 95.5393 44.572 95.5393 43.337V41.556H93.4723C93.2253 42.934 92.4063 44.234 89.9493 45.079C89.8063 44.806 89.4293 44.338 89.1823 44.13C91.1843 43.467 91.9513 42.531 92.2243 41.556H89.4683V40.438H92.3673V40.334V38.722H91.1063V38.254C90.5213 38.683 89.8973 39.06 89.2603 39.346C89.1173 39.073 88.7663 38.644 88.5323 38.436C89.3773 38.085 90.2093 37.552 90.9503 36.902C90.5863 36.512 89.9883 36.018 89.5203 35.654L90.2743 35.017C90.7423 35.329 91.3273 35.784 91.7043 36.148C92.1073 35.693 92.4583 35.186 92.7443 34.666H89.7803V33.613H93.3293L93.5503 33.574L94.3433 33.951C93.8363 35.407 92.9653 36.616 91.9253 37.578H97.3723C96.2413 36.46 95.3443 35.03 94.7333 33.431L95.7993 33.119C96.0073 33.652 96.2543 34.159 96.5533 34.653C97.0603 34.211 97.6063 33.678 97.9443 33.262L98.8543 33.899C98.2953 34.432 97.6323 35.004 97.0733 35.42C97.2943 35.719 97.5413 36.005 97.7883 36.278C98.3863 35.81 99.0493 35.199 99.4653 34.731L100.362 35.355C99.7903 35.901 99.0753 36.473 98.4643 36.915C99.1403 37.487 99.8943 37.955 100.713 38.28C100.44 38.514 100.063 38.995 99.8813 39.32C99.2573 39.034 98.6723 38.683 98.1393 38.254V38.722ZM107.161 33.444H108.526C108.513 33.626 108.513 33.847 108.487 34.081C108.604 35.81 109.28 41.647 114.142 43.883C113.765 44.169 113.414 44.572 113.219 44.897C110.073 43.376 108.63 40.399 107.954 37.89C107.33 40.373 105.965 43.181 102.949 44.91C102.728 44.598 102.338 44.221 101.948 43.961C107.148 41.192 107.07 35.16 107.161 33.444ZM121.019 39.541L120.278 40.581C120.005 40.126 119.459 39.359 118.965 38.722V45.027H117.743V39.32C117.236 40.685 116.586 41.959 115.897 42.765C115.767 42.414 115.468 41.907 115.26 41.595C116.196 40.529 117.106 38.657 117.587 36.967H115.663V35.81H117.743V33.093H118.965V35.81H120.668V36.967H118.965V37.305C119.472 37.799 120.72 39.19 121.019 39.541ZM127.337 35.81V36.967H126.05V43.467C126.05 44.234 125.868 44.572 125.4 44.767C124.932 44.975 124.152 45.001 123.047 45.001C122.982 44.663 122.787 44.104 122.618 43.766C123.398 43.792 124.217 43.792 124.451 43.779C124.685 43.779 124.776 43.701 124.776 43.467V38.657C123.775 40.373 122.41 42.024 121.071 43.038C120.863 42.739 120.499 42.297 120.2 42.063C121.799 40.997 123.437 38.943 124.399 36.967H121.097V35.81H124.776V33.106H126.05V35.81H127.337ZM137.802 38.124C137.802 41.478 137.048 43.337 134.006 44.702L132.901 43.662C135.332 42.765 136.476 41.647 136.476 38.202V37.682H133.044V39.632C133.044 40.165 133.083 40.711 133.109 40.893H131.666C131.679 40.711 131.731 40.178 131.731 39.632V37.682H130.457C129.846 37.682 129.313 37.708 129.105 37.734V36.317C129.274 36.356 129.859 36.421 130.457 36.421H131.731V34.926C131.731 34.601 131.705 34.224 131.653 33.886H133.122C133.096 34.055 133.044 34.445 133.044 34.926V36.421H136.476V34.913C136.476 34.393 136.437 33.964 136.411 33.782H137.88C137.854 33.977 137.802 34.393 137.802 34.913V36.421H139.024C139.661 36.421 140.077 36.382 140.324 36.343V37.721C140.116 37.695 139.661 37.682 139.037 37.682H137.802V38.124ZM142.937 38.202C143.366 38.228 144.172 38.28 144.874 38.28H151.946C152.57 38.28 153.077 38.228 153.402 38.202V39.814C153.116 39.801 152.518 39.749 151.946 39.749H144.874C144.159 39.749 143.379 39.775 142.937 39.814V38.202ZM164.595 33.665C164.92 34.133 165.375 34.939 165.635 35.446L164.79 35.81C164.53 35.29 164.101 34.51 163.75 34.016L164.595 33.665ZM166.064 33.119C166.402 33.6 166.896 34.406 167.13 34.887L166.285 35.251C166.012 34.692 165.596 33.951 165.232 33.47L166.064 33.119ZM158.849 34.146C158.81 34.497 158.771 34.965 158.771 35.342V38.059C160.305 37.682 162.255 37.071 163.516 36.538C163.945 36.369 164.348 36.174 164.777 35.901L165.349 37.214C164.92 37.383 164.4 37.617 163.984 37.773C162.593 38.332 160.409 38.982 158.771 39.411V42.063C158.771 42.687 159.044 42.843 159.655 42.973C160.045 43.038 160.656 43.064 161.28 43.064C162.645 43.064 164.686 42.921 165.765 42.635V44.13C164.582 44.299 162.632 44.39 161.202 44.39C160.396 44.39 159.616 44.351 159.07 44.26C158.017 44.065 157.419 43.545 157.419 42.453V35.342C157.419 35.03 157.393 34.497 157.328 34.146H158.849ZM179.051 35.251C178.96 35.381 178.765 35.706 178.674 35.927C178.219 36.993 177.452 38.462 176.542 39.632C177.881 40.776 179.454 42.453 180.26 43.441L179.116 44.455C178.258 43.285 176.958 41.855 175.671 40.659C174.28 42.141 172.525 43.532 170.666 44.403L169.613 43.298C171.719 42.492 173.669 40.932 174.956 39.489C175.84 38.501 176.711 37.071 177.023 36.057H172.252C171.745 36.057 171.043 36.122 170.835 36.135V34.666C171.095 34.705 171.849 34.757 172.252 34.757H177.075C177.556 34.757 177.985 34.705 178.206 34.627L179.051 35.251Z" fill="#333333"/>
<path d="M48 32.9251C48 45.669 37.6239 56 24.8244 56H18.229C8.16142 56 0 47.874 0 37.8502C0 27.8263 8.16142 19.7003 18.229 19.7003H24.8244C32.1601 19.7003 38.1069 25.6212 38.1069 32.9251C38.1069 40.2289 32.1601 46.1498 24.8244 46.1498H13.5573C13.1525 46.1498 12.8244 45.8232 12.8244 45.4202V35.0511C13.4981 35.4392 14.2803 35.6612 15.1145 35.6612C15.9487 35.6612 16.7309 35.4392 17.4046 35.0511V40.8599C17.4046 41.2629 17.7327 41.5896 18.1374 41.5896H22.9924C27.7985 41.5896 31.6947 37.7103 31.6947 32.9251C31.6947 28.1398 27.7985 24.2606 22.9924 24.2606H20.0611C12.523 24.2606 6.41221 30.3448 6.41221 37.8502C6.41221 45.3555 12.523 51.4397 20.0611 51.4397H24.8244C35.0944 51.4397 43.4198 43.1505 43.4198 32.9251C43.4198 22.6997 35.0944 14.4104 24.8244 14.4104H13.5573C13.1525 14.4104 12.8244 14.0838 12.8244 13.6808V0.729642C12.8244 0.326697 13.1525 0 13.5573 0H16.6718C17.0765 0 17.4046 0.326697 17.4046 0.729642V9.85016V9.12052C17.4046 9.52351 17.7327 9.85016 18.1374 9.85016H29.0382C30.5053 9.85016 31.6947 8.66595 31.6947 7.20521C31.6947 5.74447 30.5053 4.56026 29.0382 4.56026H20.4275C20.0227 4.56026 19.6947 4.23361 19.6947 3.83062V0.729642C19.6947 0.326697 20.0227 0 20.4275 0H30.8702C34.8669 0 38.1069 3.22588 38.1069 7.20521C38.1069 9.32733 37.1854 11.2351 35.7192 12.5537C43.0268 16.4361 48 24.1023 48 32.9251ZM15.1145 33.7459C16.5817 33.7459 17.771 32.5617 17.771 31.101C17.771 29.6402 16.5817 28.456 15.1145 28.456C13.6473 28.456 12.458 29.6402 12.458 31.101C12.458 32.5617 13.6473 33.7459 15.1145 33.7459Z" fill="url(#paint0_linear_28_392)"/>
<defs>
<linearGradient id="paint0_linear_28_392" x1="23.9999" y1="56" x2="24" y2="-2.76459e-07" gradientUnits="userSpaceOnUse">
<stop stop-color="#1488CC"/>
<stop offset="1" stop-color="#2B32B2"/>
</linearGradient>
</defs>
</svg>
